<?xml version="1.0" encoding="utf-8"?>
<!-- Generator: Adobe Illustrator 21.0.2, SVG Export Plug-In . SVG Version: 6.00 Build 0)  -->
<svg version="1.1" id="Capa_1" xmlns="http://www.w3.org/2000/svg" xmlns:xlink="http://www.w3.org/1999/xlink" x="0px" y="0px"
	 viewBox="0 0 174.2 174.2" style="enable-background:new 0 0 174.2 174.2;" xml:space="preserve">
<style type="text/css">
	.st0{fill:#5E5E5E;}
</style>
<path class="st0" d="M146.5,1c-1.4-1.4-3.7-1.4-5.1,0L89.7,52.8c-1.4,1.4-3.7,1.4-5.1,0L32.8,1c-1.4-1.4-3.7-1.4-5.1,0L1,27.7
	c-1.4,1.4-1.4,3.7,0,5.1l51.8,51.8c1.4,1.4,1.4,3.7,0,5.1L1,141.5c-1.4,1.4-1.4,3.7,0,5.1l26.7,26.7c1.4,1.4,3.7,1.4,5.1,0
	l51.8-51.8c1.4-1.4,3.7-1.4,5.1,0l51.8,51.8c1.4,1.4,3.7,1.4,5.1,0l26.7-26.7c1.4-1.4,1.4-3.7,0-5.1l-51.8-51.8
	c-1.4-1.4-1.4-3.7,0-5.1l51.8-51.8c1.4-1.4,1.4-3.7,0-5.1L146.5,1z"/>
</svg>
